<?xml version="1.0" encoding="utf-8"?>
<!-- Generator: Adobe Illustrator 22.1.0, SVG Export Plug-In . SVG Version: 6.00 Build 0)  -->
<svg version="1.1" id="Layer_1" xmlns="http://www.w3.org/2000/svg" xmlns:xlink="http://www.w3.org/1999/xlink" x="0px" y="0px"
	 viewBox="0 0 1300 1300" style="enable-background:new 0 0 1300 1300;" xml:space="preserve">
<style type="text/css">
	.st0{fill:none;stroke:#000000;stroke-width:40;stroke-miterlimit:10;}
	.st1{fill:#FFFFFF;}
	.st2{enable-background:new    ;}
</style>
<g>
	<g>
		<g>
			<path class="st0" d="M656.7,156.7c-142.5,0-258.1,115.6-258.1,258.1v258.1h516V425.5c0.1-3.5,0.2-7.1,0.2-10.7
				C914.9,272.3,799.3,156.7,656.7,156.7z M833.4,422.2v169.4H480V414.8c0-97.6,79.1-176.8,176.8-176.8s176.8,79.1,176.8,176.8
				C833.5,417.3,833.5,419.7,833.4,422.2z"/>
		</g>
		<g>
			<circle class="st0" cx="650" cy="827.9" r="315.5"/>
		</g>
		<g>
			<path class="st0" d="M732.1,757.4c0-45.4-36.8-82.1-82.1-82.1s-82.1,36.8-82.1,82.1c0,30.4,16.6,57,41.2,71.2L587,980.5h126
				l-21.6-152.2C715.8,814,732.1,787.6,732.1,757.4z"/>
		</g>
	</g>
	<g>
		<g>
			<path class="st1" d="M656.7,156.7c-142.5,0-258.1,115.6-258.1,258.1v258.1h516V425.5c0.1-3.5,0.2-7.1,0.2-10.7
				C914.9,272.3,799.3,156.7,656.7,156.7z M833.4,422.2v169.4H480V414.8c0-97.6,79.1-176.8,176.8-176.8s176.8,79.1,176.8,176.8
				C833.5,417.3,833.5,419.7,833.4,422.2z"/>
		</g>
		<g>
			<circle class="st1" cx="650" cy="827.9" r="315.5"/>
		</g>
		<g class="st2">
			<path d="M732.1,757.4c0-45.4-36.8-82.1-82.1-82.1s-82.1,36.8-82.1,82.1c0,30.4,16.6,57,41.2,71.2L587,980.5h126l-21.6-152.2
				C715.8,814,732.1,787.6,732.1,757.4z"/>
		</g>
	</g>
</g>
</svg>
